<?xml version="1.0" standalone="no"?>
<!DOCTYPE svg PUBLIC "-//W3C//DTD SVG 20010904//EN"
 "http://www.w3.org/TR/2001/REC-SVG-20010904/DTD/svg10.dtd">
<svg version="1.0" xmlns="http://www.w3.org/2000/svg"
 width="16.000000pt" height="16.000000pt" viewBox="0 0 16.000000 16.000000"
 preserveAspectRatio="xMidYMid meet">
<metadata>
Created by potrace 1.11, written by Peter Selinger 2001-2013
</metadata>
<g transform="translate(0.000000,16.000000) scale(0.005333,-0.005333)"
fill="#000000" stroke="none">
<path d="M256 2005 c-52 -18 -92 -59 -113 -114 -16 -40 -18 -83 -18 -351 0
-271 2 -310 18 -352 22 -56 72 -103 124 -117 23 -7 163 -11 351 -11 l312 0 0
135 0 135 -288 0 c-211 0 -291 3 -300 12 -17 17 -17 379 0 396 9 9 89 12 300
12 l288 0 0 135 0 135 -317 0 c-244 -1 -327 -4 -357 -15z"/>
<path d="M970 1535 l0 -475 120 0 120 0 2 247 3 248 195 -248 195 -247 138 0
137 0 -135 162 -135 162 44 13 c53 16 100 65 118 125 17 57 17 290 0 346 -7
23 -27 58 -43 77 -53 60 -89 65 -446 65 l-313 0 0 -475z m580 185 c24 -24 26
-67 4 -98 -15 -21 -21 -22 -180 -22 l-164 0 0 70 0 70 160 0 c147 0 162 -2
180 -20z"/>
<path d="M1920 1535 l0 -475 120 0 120 0 2 247 3 248 195 -248 195 -247 138 0
137 0 -135 162 -135 162 44 13 c53 16 100 65 118 125 17 57 17 290 0 346 -7
23 -27 58 -43 77 -53 60 -89 65 -446 65 l-313 0 0 -475z m580 185 c24 -24 26
-67 4 -98 -15 -21 -21 -22 -180 -22 l-164 0 0 70 0 70 160 0 c147 0 162 -2
180 -20z"/>
</g>
</svg>
